<?xml version="1.0" encoding="UTF-8"?>
<!DOCTYPE svg PUBLIC "-//W3C//DTD SVG 1.1//EN" "http://www.w3.org/Graphics/SVG/1.1/DTD/svg11.dtd">
<!-- Creator: CorelDRAW -->
<svg xmlns="http://www.w3.org/2000/svg" xml:space="preserve" width="2048px" height="2048px" style="shape-rendering:geometricPrecision; text-rendering:geometricPrecision; image-rendering:optimizeQuality; fill-rule:evenodd; clip-rule:evenodd"
viewBox="0 0 2048 2048"
 xmlns:xlink="http://www.w3.org/1999/xlink">
 <defs>
  <style type="text/css">
   <![CDATA[
    .fil2 {fill:none}
    .fil1 {fill:#512DA8}
    .fil0 {fill:#7E57C2}
    .fil11 {fill:#E0E0E0}
    .fil10 {fill:#FFA000}
    .fil9 {fill:#FFB300}
    .fil5 {fill:#424242;fill-rule:nonzero}
    .fil8 {fill:#BBDEFB;fill-rule:nonzero}
    .fil6 {fill:#DFB28B;fill-rule:nonzero}
    .fil7 {fill:#E0E0E0;fill-rule:nonzero}
    .fil4 {fill:#FF8F00;fill-rule:nonzero}
    .fil3 {fill:#FFB300;fill-rule:nonzero}
   ]]>
  </style>
   <clipPath id="id0">
    <path d="M1024 -0.0011811c565.541,0 1024,458.461 1024,1024 0,565.541 -458.461,1024 -1024,1024 -565.541,0 -1024,-458.461 -1024,-1024 0,-565.541 458.461,-1024 1024,-1024z"/>
   </clipPath>
 </defs>
 <g id="Layer_x0020_1">
  <metadata id="CorelCorpID_0Corel-Layer"/>
  <path class="fil0" d="M1024 -0.0011811c565.541,0 1024,458.461 1024,1024 0,565.541 -458.461,1024 -1024,1024 -565.541,0 -1024,-458.461 -1024,-1024 0,-565.541 458.461,-1024 1024,-1024z"/>
  <g style="clip-path:url(#id0)">
   <g id="_517131160">
    <g>
     <polygon id="_4899745681" class="fil1" points="1474.26,693.612 2610.14,1829.49 2611.32,1831.13 2612.35,1832.88 2613.21,1834.72 2613.89,1836.65 2614.38,1838.65 2614.67,1840.72 2614.76,1842.83 2614.63,1844.98 1478.75,709.101 1478.88,706.948 1478.79,704.834 1478.5,702.769 1478.01,700.767 1477.33,698.839 1476.47,696.996 1475.44,695.249 "/>
     <polygon id="_489974640" class="fil1" points="1478.75,709.101 2614.63,1844.98 2614.59,1844.98 1478.71,709.098 "/>
     <polygon id="_489976680" class="fil1" points="1478.71,709.098 2614.59,1844.98 2614.43,1846.5 2614.27,1848.09 2614.11,1849.75 2613.95,1851.49 2613.8,1853.3 2613.64,1855.17 2613.49,1857.11 2613.34,1859.12 2613.18,1861.19 2613.03,1863.33 2612.88,1865.53 2612.73,1867.79 2612.58,1870.11 2612.43,1872.48 2612.27,1874.92 2612.12,1877.41 1476.24,741.524 1476.39,739.035 1476.54,736.602 1476.7,734.226 1476.85,731.907 1477,729.648 1477.15,727.449 1477.3,725.312 1477.45,723.239 1477.61,721.231 1477.76,719.288 1477.91,717.414 1478.07,715.607 1478.23,713.871 1478.39,712.206 1478.55,710.616 "/>
     <polygon id="_489976032" class="fil1" points="1481.5,741.546 2617.38,1877.43 2617.02,1877.44 2616.05,1877.45 2614.73,1877.46 2613.33,1877.47 2612.12,1877.48 1476.23,741.596 1477.45,741.588 1478.85,741.578 1480.17,741.567 1481.14,741.557 "/>
     <polygon id="_489976704" class="fil1" points="1563.98,765.14 2699.86,1901.02 2702.49,1904.42 2704.91,1908.13 2707.09,1912.16 2709.04,1916.53 2710.72,1921.26 2712.13,1926.34 2713.25,1931.81 2714.08,1937.66 2714.6,1943.92 2714.8,1950.6 1578.92,814.721 1578.72,808.041 1578.2,801.78 1577.37,795.924 1576.25,790.459 1574.84,785.373 1573.15,780.651 1571.21,776.28 1569.03,772.248 1566.61,768.539 "/>
     <polygon id="_489976560" class="fil1" points="1578.92,814.721 2714.8,1950.6 2714.76,1953.76 2714.64,1956.91 2714.43,1960.06 2714.13,1963.21 2713.74,1966.35 2713.27,1969.48 2712.72,1972.61 2712.08,1975.74 2711.36,1978.85 2710.57,1981.95 2709.7,1985.04 2708.75,1988.12 2707.73,1991.19 2706.63,1994.24 2705.47,1997.28 2704.23,2000.3 2702.93,2003.3 2701.56,2006.29 2700.12,2009.25 2698.62,2012.19 2697.06,2015.11 2695.44,2018.01 2693.76,2020.89 2692.02,2023.74 2690.23,2026.56 2688.38,2029.35 2686.48,2032.12 2684.53,2034.86 2682.53,2037.56 2680.48,2040.24 2678.38,2042.88 2676.24,2045.49 1540.35,909.608 1542.5,907 1544.59,904.358 1546.65,901.683 1548.65,898.975 1550.6,896.239 1552.5,893.472 1554.35,890.676 1556.14,887.854 1557.88,885.004 1559.56,882.131 1561.18,879.232 1562.74,876.311 1564.24,873.368 1565.68,870.403 1567.05,867.42 1568.35,864.418 1569.58,861.398 1570.75,858.361 1571.84,855.309 1572.87,852.242 1573.82,849.162 1574.69,846.07 1575.48,842.968 1576.2,839.854 1576.84,836.733 1577.39,833.603 1577.86,830.467 1578.25,827.325 1578.55,824.177 1578.76,821.027 1578.88,817.875 "/>
     <polygon id="_489976584" class="fil1" points="1540.35,909.608 2676.24,2045.49 2673.93,2048.2 2671.58,2050.87 2669.18,2053.5 2666.73,2056.09 2664.24,2058.65 2661.71,2061.16 2659.14,2063.62 2656.53,2066.05 2653.88,2068.42 2651.19,2070.75 2648.48,2073.03 2645.73,2075.26 2642.95,2077.44 2640.15,2079.56 2637.32,2081.63 2634.46,2083.65 2631.59,2085.6 2628.69,2087.5 2625.78,2089.34 2622.85,2091.12 2619.9,2092.83 2616.95,2094.48 2613.98,2096.07 2611,2097.59 2608.02,2099.04 2605.03,2100.42 2602.04,2101.73 2599.05,2102.97 2596.06,2104.14 2593.07,2105.23 2590.09,2106.24 2587.11,2107.18 1451.23,971.298 1454.21,970.361 1457.19,969.347 1460.18,968.257 1463.17,967.091 1466.16,965.852 1469.15,964.541 1472.14,963.159 1475.12,961.707 1478.1,960.189 1481.07,958.602 1484.02,956.951 1486.97,955.236 1489.9,953.459 1492.81,951.62 1495.71,949.72 1498.58,947.763 1501.44,945.75 1504.26,943.679 1507.07,941.554 1509.85,939.377 1512.6,937.148 1515.31,934.868 1518,932.54 1520.64,930.164 1523.26,927.742 1525.83,925.275 1528.36,922.764 1530.85,920.212 1533.3,917.618 1535.7,914.985 1538.05,912.315 "/>
     <polygon id="_489976296" class="fil1" points="1451.23,971.298 2587.11,2107.18 2585.79,2112.67 2584.42,2118.07 2583,2123.38 2581.52,2128.58 2580,2133.68 2578.41,2138.67 2576.77,2143.54 2575.08,2148.29 2573.32,2152.91 2571.5,2157.4 2569.62,2161.75 2567.68,2165.95 2565.68,2170 2563.61,2173.9 2561.48,2177.63 2559.28,2181.2 2557.01,2184.59 2554.67,2187.81 2552.26,2190.84 2549.78,2193.68 2547.23,2196.33 2544.6,2198.78 2541.89,2201.02 2539.11,2203.04 2536.26,2204.85 2533.32,2206.44 2530.3,2207.8 2527.2,2208.92 2524.02,2209.81 2520.76,2210.44 2517.41,2210.83 2513.97,2210.96 1378.09,1075.08 1381.53,1074.95 1384.88,1074.56 1388.14,1073.92 1391.32,1073.04 1394.42,1071.92 1397.44,1070.56 1400.37,1068.97 1403.23,1067.16 1406.01,1065.13 1408.72,1062.89 1411.34,1060.45 1413.9,1057.8 1416.38,1054.96 1418.79,1051.93 1421.13,1048.71 1423.4,1045.32 1425.6,1041.75 1427.73,1038.02 1429.8,1034.12 1431.8,1030.07 1433.74,1025.87 1435.62,1021.52 1437.44,1017.03 1439.19,1012.41 1440.89,1007.66 1442.53,1002.79 1444.11,997.801 1445.64,992.701 1447.12,987.496 1448.54,982.189 1449.91,976.788 "/>
     <polygon id="_489976536" class="fil1" points="1378.09,1075.08 2513.97,2210.96 2386.69,2210.96 1250.8,1075.08 "/>
     <polygon id="_489977520" class="fil1" points="1250.8,1075.08 2386.69,2210.96 2259.4,2210.96 1123.51,1075.08 "/>
     <polygon id="_489977040" class="fil1" points="1123.51,1075.08 2259.4,2210.96 2252.2,2210.38 2245.39,2208.67 2238.95,2205.88 2232.87,2202.07 2227.14,2197.29 1091.26,1061.4 1096.99,1066.18 1103.07,1069.99 1109.51,1072.78 1116.32,1074.5 "/>
     <polygon id="_489977064" class="fil1" points="1022.4,1063.49 2158.28,2199.37 2159.36,2200.55 2160.35,2201.84 2161.27,2203.23 2162.09,2204.71 2162.83,2206.28 2163.46,2207.93 2164,2209.66 2164.43,2211.45 1028.55,1075.56 1028.12,1073.77 1027.58,1072.05 1026.95,1070.4 1026.21,1068.83 1025.39,1067.35 1024.47,1065.96 1023.48,1064.67 "/>
     <polygon id="_489977400" class="fil1" points="1577.65,1049.68 2713.53,2185.56 2714.77,2187.03 2715.9,2188.64 2716.9,2190.39 2717.78,2192.27 2718.51,2194.25 2719.1,2196.34 2719.53,2198.52 2719.79,2200.78 2719.88,2203.1 1584,1067.22 1583.91,1064.9 1583.65,1062.64 1583.22,1060.46 1582.63,1058.37 1581.89,1056.39 1581.02,1054.51 1580.02,1052.76 1578.89,1051.15 "/>
     <polygon id="_489977424" class="fil1" points="1584,1067.22 2719.88,2203.1 2719.79,2205.42 2719.53,2207.68 2719.1,2209.86 2718.51,2211.95 2717.78,2213.93 2716.9,2215.81 2715.9,2217.56 2714.77,2219.17 2713.53,2220.64 2712.19,2221.95 2710.75,2223.09 2709.23,2224.04 2707.62,2224.81 2705.95,2225.37 2704.22,2225.71 2702.44,2225.83 1566.56,1089.95 1568.34,1089.83 1570.07,1089.49 1571.74,1088.93 1573.35,1088.16 1574.87,1087.2 1576.31,1086.06 1577.65,1084.76 1578.89,1083.29 1580.02,1081.68 1581.02,1079.93 1581.89,1078.05 1582.63,1076.07 1583.22,1073.98 1583.65,1071.8 1583.91,1069.54 "/>
     <polygon id="_489976896" class="fil1" points="1566.56,1089.95 2702.44,2225.83 2651.52,2234.39 1515.64,1098.51 "/>
     <polygon id="_489977448" class="fil1" points="1515.64,1098.51 2651.52,2234.39 2651.42,2236.69 2651.14,2238.93 2650.7,2241.09 2650.1,2243.16 2649.36,2245.13 2648.49,2246.98 2647.48,2248.72 2646.36,2250.31 2645.12,2251.77 2643.78,2253.06 2642.35,2254.19 2640.83,2255.13 2639.24,2255.89 2637.57,2256.44 2635.85,2256.79 2634.08,2256.9 1498.2,1121.02 1499.97,1120.9 1501.69,1120.56 1503.36,1120.01 1504.95,1119.25 1506.47,1118.31 1507.9,1117.18 1509.24,1115.88 1510.48,1114.43 1511.6,1112.83 1512.61,1111.1 1513.48,1109.24 1514.22,1107.28 1514.82,1105.21 1515.26,1103.05 1515.53,1100.81 "/>
     <polygon id="_489976968" class="fil1" points="892.657,1025.21 2028.54,2161.09 2030.15,2162.85 2031.65,2164.7 2033.04,2166.66 2034.31,2168.71 2035.48,2170.85 2036.53,2173.08 2037.47,2175.38 2038.28,2177.77 2038.66,2179.06 2039.01,2180.34 2039.31,2181.62 2039.57,2182.91 2039.79,2184.19 2039.97,2185.48 2040.12,2186.76 2040.22,2188.04 2040.28,2189.32 2040.3,2190.59 2040.28,2191.86 2040.22,2193.12 2040.12,2194.38 2039.98,2195.64 2039.8,2196.88 2039.58,2198.12 2039.31,2199.35 2039.01,2200.58 2038.66,2201.79 2038.27,2202.99 2037.84,2204.19 2037.37,2205.37 2036.85,2206.54 2036.3,2207.7 2035.7,2208.85 2035.06,2209.98 2034.37,2211.1 2033.65,2212.2 2032.88,2213.29 2032.06,2214.36 2031.21,2215.42 2030.31,2216.45 894.431,1080.57 895.328,1079.53 896.183,1078.48 896.996,1077.41 897.765,1076.32 898.491,1075.22 899.175,1074.1 899.816,1072.96 900.415,1071.82 900.972,1070.66 901.487,1069.49 901.959,1068.31 902.39,1067.11 902.779,1065.91 903.126,1064.69 903.432,1063.47 903.696,1062.24 903.92,1061 904.101,1059.75 904.242,1058.5 904.342,1057.24 904.401,1055.98 904.42,1054.71 904.399,1053.43 904.337,1052.16 904.235,1050.88 904.092,1049.6 903.91,1048.31 903.688,1047.03 903.426,1045.74 903.125,1044.46 902.783,1043.17 902.403,1041.89 901.586,1039.5 900.65,1037.19 899.599,1034.97 898.433,1032.83 897.154,1030.78 895.764,1028.82 894.264,1026.96 "/>
     <polygon id="_489977160" class="fil1" points="978.106,1098.51 2113.99,2234.39 2063.07,2225.83 927.187,1089.95 "/>
     <polygon id="_489977304" class="fil1" points="1498.2,1121.02 2634.08,2256.9 2131.43,2256.9 995.546,1121.02 "/>
     <polygon id="_489978048" class="fil1" points="927.187,1089.95 2063.07,2225.83 2061.29,2225.71 2059.55,2225.37 2057.88,2224.81 2056.28,2224.04 2054.75,2223.09 2053.31,2221.95 917.434,1086.06 918.872,1087.2 920.397,1088.16 922,1088.93 923.671,1089.49 925.404,1089.83 "/>
     <polygon id="_489978096" class="fil1" points="1260.44,1150.57 2396.32,2286.45 2397.34,2287.54 2398.3,2288.69 1262.42,1152.81 1261.45,1151.66 "/>
     <polygon id="_489977664" class="fil1" points="1262.42,1152.81 2398.3,2288.69 2399.88,2290.77 2401.3,2292.84 2402.55,2294.89 2403.65,2296.93 2404.58,2298.95 2405.37,2300.96 2406,2302.95 2406.48,2304.93 2406.81,2306.89 2407,2308.83 2407.05,2310.77 2406.96,2312.69 2406.73,2314.59 2406.36,2316.47 2405.87,2318.35 2405.24,2320.2 1269.36,1184.32 1269.98,1182.47 1270.48,1180.59 1270.85,1178.7 1271.08,1176.8 1271.17,1174.88 1271.12,1172.95 1270.93,1171 1270.6,1169.04 1270.12,1167.07 1269.49,1165.07 1268.7,1163.07 1267.76,1161.04 1266.67,1159.01 1265.42,1156.96 1264,1154.89 "/>
     <polygon id="_489978168" class="fil1" points="995.546,1121.02 2131.43,2256.9 2129.65,2256.79 2127.93,2256.44 2126.27,2255.89 2124.67,2255.13 2123.16,2254.19 2121.72,2253.06 2120.38,2251.77 984.503,1115.88 985.842,1117.18 987.275,1118.31 988.792,1119.25 990.387,1120.01 992.05,1120.56 993.773,1120.9 "/>
     <polygon id="_489978216" class="fil1" points="894.431,1080.57 2030.31,2216.45 2030.26,2216.54 2030.21,2216.62 2030.16,2216.71 2030.1,2216.79 2030.05,2216.88 2030,2216.96 2029.94,2217.05 2029.89,2217.13 894.01,1081.25 894.063,1081.17 894.116,1081.08 894.17,1081 894.222,1080.91 894.275,1080.83 894.327,1080.74 894.379,1080.66 "/>
     <polygon id="_489978240" class="fil1" points="811.929,1116.31 1947.81,2252.19 1946.37,2252.46 1944.94,2252.73 1943.51,2253 1942.11,2253.26 1940.74,2253.52 1939.39,2253.77 1938.09,2254.02 1936.82,2254.26 1935.61,2254.49 1934.46,2254.7 1933.37,2254.91 1932.34,2255.11 1931.4,2255.29 1930.53,2255.46 1929.76,2255.61 1929.08,2255.75 793.197,1119.87 793.879,1119.73 794.653,1119.58 795.518,1119.41 796.463,1119.23 797.484,1119.03 798.576,1118.82 799.731,1118.6 800.942,1118.37 802.204,1118.14 803.51,1117.89 804.855,1117.64 806.231,1117.38 807.633,1117.11 809.055,1116.85 810.488,1116.58 "/>
     <polygon id="_489977760" class="fil1" points="528.948,1094.33 1664.83,2230.21 1665.97,2231.35 1666.8,2232.8 1667.31,2234.58 1667.49,2236.74 531.604,1100.86 531.429,1098.7 530.918,1096.91 530.084,1095.47 "/>
     <polygon id="_489977808" class="fil1" points="677.37,1265.84 1813.25,2401.72 1811.4,2401.38 1809.55,2401.05 1807.72,2400.74 1805.88,2400.44 1804.05,2400.16 1802.23,2399.89 1800.41,2399.64 1798.6,2399.4 1796.79,2399.18 1794.99,2398.98 1793.19,2398.79 1791.4,2398.62 1789.61,2398.46 1787.83,2398.32 1786.06,2398.2 1784.28,2398.09 1782.52,2398 1780.75,2397.93 1778.99,2397.87 1777.24,2397.83 1775.49,2397.81 1773.75,2397.8 1772,2397.81 1770.27,2397.84 1768.53,2397.89 1766.81,2397.95 1765.08,2398.03 1763.36,2398.12 1761.64,2398.24 1759.93,2398.37 1758.22,2398.52 1756.51,2398.69 620.632,1262.81 622.339,1262.64 624.048,1262.49 625.762,1262.36 627.479,1262.24 629.2,1262.14 630.924,1262.07 632.653,1262 634.386,1261.96 636.122,1261.93 637.864,1261.92 639.609,1261.93 641.359,1261.95 643.113,1261.99 644.872,1262.05 646.634,1262.12 648.402,1262.21 650.175,1262.32 651.951,1262.44 653.734,1262.58 655.521,1262.74 657.312,1262.91 659.109,1263.09 660.911,1263.3 662.718,1263.52 664.53,1263.75 666.348,1264.01 668.171,1264.27 670,1264.56 671.834,1264.85 673.673,1265.17 675.519,1265.5 "/>
     <polygon id="_489977688" class="fil1" points="620.632,1262.81 1756.51,2398.69 1754.87,2398.87 1753.24,2399.06 1751.6,2399.27 1749.97,2399.5 1748.34,2399.75 1746.71,2400.01 1745.08,2400.29 1743.45,2400.59 1741.82,2400.91 1740.2,2401.24 1738.58,2401.59 1736.95,2401.96 1735.33,2402.35 1733.71,2402.75 1732.09,2403.17 1730.47,2403.61 1728.86,2404.07 1727.24,2404.55 1725.62,2405.04 1724.01,2405.55 1722.39,2406.08 1720.78,2406.63 1719.16,2407.2 1717.55,2407.79 1715.93,2408.39 1714.32,2409.01 1712.71,2409.66 1711.09,2410.32 1709.48,2411 1707.86,2411.7 1706.25,2412.41 1704.63,2413.15 568.753,1277.27 570.368,1276.53 571.982,1275.81 573.597,1275.11 575.21,1274.43 576.825,1273.77 578.438,1273.13 580.053,1272.51 581.666,1271.9 583.281,1271.32 584.895,1270.75 586.51,1270.2 588.126,1269.67 589.741,1269.16 591.358,1268.66 592.975,1268.19 594.593,1267.73 596.211,1267.29 597.831,1266.87 599.451,1266.46 601.073,1266.08 602.695,1265.71 604.319,1265.36 605.944,1265.03 607.569,1264.71 609.197,1264.41 610.825,1264.13 612.455,1263.87 614.087,1263.62 615.721,1263.39 617.356,1263.18 618.993,1262.98 "/>
     <polygon id="_489977928" class="fil1" points="568.753,1277.27 1704.63,2413.15 1703.59,2413.68 1702.29,2414.24 1700.77,2414.83 1699.02,2415.45 1697.08,2416.09 1694.95,2416.74 1692.66,2417.4 1690.22,2418.07 1687.66,2418.74 1684.98,2419.41 1682.2,2420.07 1679.35,2420.71 1676.43,2421.33 1673.47,2421.93 1670.48,2422.5 1667.49,2423.04 531.604,1287.16 534.602,1286.62 537.59,1286.05 540.551,1285.45 543.467,1284.83 546.322,1284.18 549.097,1283.53 551.777,1282.86 554.344,1282.19 556.782,1281.52 559.071,1280.86 561.195,1280.2 563.138,1279.57 564.884,1278.95 566.412,1278.36 567.708,1277.8 "/>
     <polygon id="_489977904" class="fil1" points="531.604,1287.16 1667.49,2423.04 1667.49,2488.41 531.604,1352.53 "/>
     <polygon id="_489979080" class="fil1" points="531.604,1352.53 1667.49,2488.41 1667.31,2490.59 1666.8,2492.42 1665.97,2493.94 1664.83,2495.18 1663.41,2496.16 1661.71,2496.91 1659.77,2497.45 1657.58,2497.83 1655.18,2498.05 1652.58,2498.16 1649.79,2498.17 1646.84,2498.12 1643.73,2498.03 1640.49,2497.94 1637.14,2497.86 1633.68,2497.83 497.802,1361.94 501.258,1361.98 504.613,1362.05 507.853,1362.15 510.958,1362.24 513.913,1362.29 516.701,1362.28 519.303,1362.17 521.703,1361.94 523.885,1361.57 525.831,1361.03 527.524,1360.28 528.948,1359.3 530.084,1358.06 530.918,1356.54 531.429,1354.71 "/>
     <polygon id="_489978552" class="fil1" points="497.802,1361.94 1633.68,2497.83 1630.23,2497.86 1626.87,2497.94 1623.63,2498.03 1620.53,2498.12 1617.57,2498.17 1614.78,2498.16 1612.18,2498.05 1609.78,2497.83 1607.6,2497.45 1605.65,2496.91 1603.96,2496.16 1602.54,2495.18 466.655,1359.3 468.078,1360.28 469.772,1361.03 471.718,1361.57 473.9,1361.94 476.3,1362.17 478.902,1362.28 481.689,1362.29 484.644,1362.24 487.75,1362.15 490.989,1362.05 494.346,1361.98 "/>
     <polygon id="_489978912" class="fil1" points="531.604,1100.86 1667.49,2236.74 1667.49,2254.12 531.604,1118.24 "/>
     <polygon id="_489978768" class="fil1" points="844.064,1293.46 1979.94,2429.34 1974.55,2428.6 1969.07,2427.83 1963.53,2427.04 1957.92,2426.22 1952.27,2425.38 1946.57,2424.52 1940.84,2423.65 1935.08,2422.75 1929.31,2421.85 1923.53,2420.93 1917.76,2420.01 1912,2419.07 1906.26,2418.13 1900.55,2417.19 1894.88,2416.24 1889.25,2415.29 1883.69,2414.35 1878.19,2413.41 1872.77,2412.48 1867.43,2411.55 1862.18,2410.63 1857.04,2409.72 1852.01,2408.83 1847.1,2407.96 1842.32,2407.1 1837.68,2406.25 1833.19,2405.44 1828.85,2404.64 1824.68,2403.87 1820.68,2403.12 1816.87,2402.41 1813.25,2401.72 677.37,1265.84 680.989,1266.53 684.8,1267.24 688.797,1267.99 692.967,1268.76 697.304,1269.55 701.799,1270.37 706.439,1271.21 711.22,1272.07 716.13,1272.95 721.16,1273.84 726.303,1274.75 731.548,1275.67 736.887,1276.59 742.31,1277.53 747.808,1278.47 753.374,1279.41 758.996,1280.36 764.666,1281.3 770.377,1282.25 776.117,1283.19 781.879,1284.12 787.652,1285.05 793.429,1285.97 799.199,1286.87 804.955,1287.76 810.686,1288.64 816.384,1289.5 822.041,1290.34 827.646,1291.15 833.19,1291.95 838.666,1292.72 "/>
     <polygon id="_489978576" class="fil1" points="894.01,1081.25 2029.89,2217.13 2028.52,2219.2 2027.02,2221.22 2025.4,2223.2 2023.66,2225.13 2021.79,2227.01 2019.8,2228.83 2017.67,2230.58 2015.42,2232.27 2013.03,2233.88 2010.51,2235.42 2007.85,2236.87 2005.06,2238.23 2002.13,2239.51 1999.05,2240.69 1995.84,2241.76 1992.48,2242.73 856.6,1106.85 859.958,1105.88 863.173,1104.8 866.245,1103.63 869.177,1102.35 871.971,1100.99 874.627,1099.53 877.148,1098 879.536,1096.38 881.79,1094.7 883.915,1092.94 885.91,1091.13 887.779,1089.25 889.521,1087.32 891.139,1085.34 892.635,1083.32 "/>
     <polygon id="_489978720" class="fil1" points="856.6,1106.85 1992.48,2242.73 1991.19,2243.07 1989.9,2243.41 1988.59,2243.74 1987.27,2244.07 1985.94,2244.39 1984.6,2244.71 1983.25,2245.03 1981.9,2245.34 1980.53,2245.65 1979.16,2245.96 1977.78,2246.26 1976.4,2246.57 1975,2246.86 1973.61,2247.16 1972.2,2247.46 1970.79,2247.75 1969.38,2248.04 1967.96,2248.32 1966.53,2248.61 1965.1,2248.89 1963.67,2249.17 1962.24,2249.45 1960.8,2249.73 1959.36,2250.01 1957.92,2250.28 1956.48,2250.56 1955.03,2250.83 1953.59,2251.1 1952.14,2251.38 1950.7,2251.65 1949.25,2251.92 1947.81,2252.19 811.929,1116.31 813.373,1116.04 814.817,1115.77 816.263,1115.5 817.707,1115.22 819.153,1114.95 820.596,1114.68 822.04,1114.4 823.481,1114.13 824.92,1113.85 826.358,1113.57 827.792,1113.29 829.223,1113.01 830.651,1112.73 832.075,1112.44 833.495,1112.15 834.91,1111.86 836.32,1111.57 837.725,1111.28 839.123,1110.98 840.516,1110.68 841.902,1110.38 843.281,1110.08 844.653,1109.77 846.016,1109.46 847.372,1109.15 848.72,1108.83 850.058,1108.51 851.386,1108.18 852.705,1107.86 854.014,1107.52 855.312,1107.19 "/>
     <polygon id="_489978816" class="fil1" points="1194.88,1235.84 2330.76,2371.72 2322.92,2374.65 2314.87,2377.5 2306.64,2380.27 2298.26,2382.97 2289.75,2385.59 2281.14,2388.13 2272.45,2390.59 2263.72,2392.97 2254.96,2395.27 2246.2,2397.5 2237.47,2399.64 2228.8,2401.71 2220.21,2403.69 2211.73,2405.59 2203.38,2407.42 2195.19,2409.16 2187.19,2410.82 2179.4,2412.4 2171.85,2413.9 2164.57,2415.32 2157.57,2416.65 2150.9,2417.91 2144.56,2419.08 2138.6,2420.16 2133.03,2421.16 2127.89,2422.08 2123.19,2422.92 2118.97,2423.67 2115.24,2424.34 2112.05,2424.93 2109.41,2425.43 2107.34,2425.84 971.463,1289.96 973.526,1289.54 976.168,1289.04 979.363,1288.46 983.084,1287.79 987.308,1287.04 992.004,1286.2 997.15,1285.28 1002.72,1284.28 1008.68,1283.19 1015.02,1282.02 1021.69,1280.77 1028.69,1279.44 1035.97,1278.02 1043.52,1276.52 1051.31,1274.94 1059.31,1273.28 1067.5,1271.54 1075.85,1269.71 1084.33,1267.81 1092.92,1265.82 1101.59,1263.76 1110.32,1261.61 1119.08,1259.39 1127.84,1257.09 1136.57,1254.7 1145.26,1252.24 1153.87,1249.7 1162.38,1247.09 1170.76,1244.39 1178.99,1241.62 1187.04,1238.76 "/>
     <polygon id="_489979392" class="fil1" points="1273.74,1185.98 2409.62,2321.87 2408.95,2323.77 2408.13,2325.65 2407.17,2327.51 2406.08,2329.35 2404.85,2331.16 2403.48,2332.95 2401.99,2334.72 2400.37,2336.47 2398.63,2338.2 2396.77,2339.9 2394.78,2341.58 2392.69,2343.25 2390.48,2344.89 2388.16,2346.5 2385.74,2348.1 2383.21,2349.68 2380.58,2351.23 2377.85,2352.77 2375.03,2354.28 2372.12,2355.77 2369.11,2357.25 2366.03,2358.7 2362.85,2360.13 2359.6,2361.54 2356.27,2362.93 2352.86,2364.3 2349.39,2365.65 2345.84,2366.98 2342.23,2368.29 2338.56,2369.58 2334.82,2370.85 2331.03,2372.1 1195.15,1236.22 1198.94,1234.97 1202.67,1233.7 1206.35,1232.41 1209.96,1231.1 1213.51,1229.77 1216.98,1228.42 1220.39,1227.05 1223.72,1225.66 1226.97,1224.25 1230.14,1222.82 1233.23,1221.36 1236.23,1219.89 1239.15,1218.4 1241.97,1216.89 1244.7,1215.35 1247.33,1213.8 1249.86,1212.22 1252.28,1210.62 1254.6,1209 1256.81,1207.36 1258.9,1205.7 1260.89,1204.02 1262.75,1202.31 1264.49,1200.59 1266.11,1198.84 1267.6,1197.07 1268.97,1195.28 1270.2,1193.46 1271.29,1191.63 1272.25,1189.77 1273.06,1187.89 "/>
     <polygon id="_489979752" class="fil1" points="793.197,1119.87 1929.08,2255.75 1927.2,2256.12 1925.34,2256.46 1923.49,2256.79 1921.67,2257.09 1919.87,2257.38 1918.1,2257.64 1916.36,2257.9 1914.65,2258.13 1912.98,2258.35 1911.34,2258.55 1909.75,2258.74 1908.19,2258.92 1906.68,2259.09 1905.22,2259.24 1903.81,2259.39 1902.46,2259.53 1901.16,2259.66 1899.91,2259.78 1898.73,2259.9 1897.61,2260.01 1896.56,2260.12 1895.57,2260.23 1894.66,2260.34 1893.82,2260.45 1893.06,2260.55 1892.37,2260.66 1891.77,2260.77 1891.25,2260.88 1890.82,2261 1890.48,2261.12 1890.22,2261.25 1890.07,2261.39 754.188,1125.51 754.343,1125.37 754.595,1125.24 754.938,1125.12 755.369,1125 755.888,1124.89 756.491,1124.78 757.175,1124.67 757.939,1124.56 758.779,1124.46 759.692,1124.35 760.677,1124.24 761.729,1124.13 762.849,1124.02 764.031,1123.9 765.275,1123.77 766.576,1123.64 767.933,1123.51 769.344,1123.36 770.803,1123.2 772.312,1123.04 773.866,1122.86 775.462,1122.67 777.099,1122.46 778.772,1122.25 780.48,1122.01 782.221,1121.76 783.992,1121.5 785.789,1121.21 787.61,1120.9 789.454,1120.58 791.318,1120.23 "/>
     <polygon id="_489979680" class="fil1" points="754.188,1125.51 1890.07,2261.39 1890.12,2261.66 1890.17,2261.92 1890.22,2262.19 1890.26,2262.46 1890.3,2262.74 1890.34,2263.01 1890.38,2263.28 1890.41,2263.56 754.528,1127.68 754.497,1127.4 754.462,1127.13 754.424,1126.85 754.384,1126.58 754.339,1126.31 754.292,1126.04 754.242,1125.77 "/>
     <polygon id="_489979704" class="fil1" points="971.463,1289.96 2107.34,2425.84 2102,2426.97 2097.01,2428.03 2092.33,2429.03 2087.96,2429.96 2083.85,2430.82 2079.98,2431.62 2076.33,2432.35 2072.87,2433.02 2069.58,2433.62 2066.43,2434.15 2063.39,2434.62 2060.43,2435.02 2057.54,2435.36 2054.69,2435.63 2051.85,2435.83 2048.99,2435.97 2046.08,2436.05 2043.12,2436.06 2040.05,2436 2036.87,2435.88 2033.54,2435.69 2030.04,2435.44 2026.35,2435.12 2022.43,2434.74 2018.26,2434.29 2013.82,2433.78 2009.08,2433.2 2004.01,2432.56 1998.59,2431.85 1992.78,2431.08 1986.58,2430.24 1979.94,2429.34 844.064,1293.46 850.699,1294.36 856.903,1295.2 862.705,1295.97 868.127,1296.68 873.197,1297.32 877.94,1297.9 882.382,1298.41 886.55,1298.85 890.468,1299.24 894.164,1299.55 897.663,1299.81 900.99,1299.99 904.172,1300.12 907.235,1300.17 910.203,1300.16 913.105,1300.09 915.964,1299.95 918.809,1299.74 921.662,1299.47 924.552,1299.14 927.504,1298.74 930.544,1298.27 933.696,1297.73 936.989,1297.13 940.448,1296.47 944.097,1295.74 947.964,1294.94 952.074,1294.07 956.453,1293.14 961.128,1292.15 966.121,1291.09 "/>
    </g>
    <path id="_517130848" class="fil1" d="M1043.8 685.706l207.003 0 207 0c0.767717,0.00236221 1.54252,0.0437008 2.32441,0.12874 11.5654,1.28386 19.9016,11.7012 18.6177,23.2666l-0.0366142 -0.00354331c-0.875198,7.89213 -1.65236,19.0099 -2.47205,32.426 10.3134,0.00944883 2.76614,0.0543308 -0.00472441,0.0720473 0.240945,-0.0011811 0.53504,-0.00236221 0.88819,-0.00354331 43.7268,-0.175984 101.483,-0.4063 101.795,73.1292 0.142913,33.6437 -15.4701,67.2497 -38.5618,94.8863 -24.287,29.0693 -57.4004,52.1162 -89.1261,61.6902 -13.8071,59.015 -36.0331,103.78 -73.1351,103.78l-127.289 0 -127.291 0c-78.7961,0 -90.4985,-201.926 -96.9591,-313.429 -1.25669,-21.7158 -2.30079,-39.6945 -3.52441,-51.3178 -0.197244,-1.15512 -0.3,-2.34213 -0.3,-3.55276 0,-11.6374 9.43465,-21.0721 21.0721,-21.0721zm-32.113 372.989c8.07875,0 14.8736,7.15749 16.8567,16.8685l436.65 0c1.98307,-9.71103 8.77914,-16.8685 16.8567,-16.8685l84.5032 -14.2039c9.63308,0 17.4437,10.1764 17.4437,22.728 0,12.5516 -7.81064,22.728 -17.4437,22.728l-50.9174 8.55827c-0.0885827,12.4536 -7.8626,22.5142 -17.4414,22.5142l-502.652 0c-9.57757,0 -17.3528,-10.0606 -17.4402,-22.5142l-50.9185 -8.55827c-9.63426,0 -17.4449,-10.1764 -17.4449,-22.728 0,-12.5516 7.81064,-22.728 17.4449,-22.728l84.502 14.2039zm38.6315 93.9532c51.443,-4.63229 106.14,-9.55867 152.791,-14.9693 1.24961,-0.21378 2.53347,-0.324803 3.84449,-0.324803 26.1792,0 45.4902,2.93504 55.4611,15.4536 8.87363,11.1402 10.6264,21.6496 6.94016,31.5142 1.4941,0.500788 2.95394,1.05591 4.37835,1.66181 -6.38504,20.4248 -37.8449,36.9969 -78.5871,50.2359 -0.090945,-0.127559 -0.18189,-0.256299 -0.272835,-0.383859 -82.4351,31.6488 -204.595,50.1591 -223.413,54.1205 -58.9182,12.398 -54.2374,13.4551 -127.4,3.50551 -57.1205,-7.76812 -129.155,-20.4898 -166.694,-27.6201 -19.7764,-3.75355 -38.5583,-4.9193 -56.7378,-3.03544 -17.491,1.81299 -34.6536,6.49489 -51.8788,14.4626 -4.87796,2.70709 -21.163,7.12323 -37.1492,9.88702l0 65.3764c0,12.5516 -15.1347,9.41103 -33.802,9.41103 -18.6685,0 -33.8032,3.14055 -33.8032,-9.41103l0 -251.673c0,-12.5516 15.1347,-7.93111 33.8032,-7.93111 18.6673,0 33.802,-4.62048 33.802,7.93111l0 17.3776c26.6551,-22.3264 48.9969,-54.841 90.4087,-74.1827 45.802,-13.8307 98.7213,-20.5122 121.389,-19.8414 25.0016,0.739371 50.1496,-3.89292 70.9075,-7.71733 21.626,-3.98386 39.2469,-7.2319 53.328,-4.03819 2.98465,0.677953 5.81693,1.64528 8.4756,2.86772 13.1043,3.88347 22.2496,13.6217 26.2902,26.5666 4.26615,13.6677 1.83898,27.7004 -7.97245,38.6811 -0.138189,0.226772 -0.277559,0.452363 -0.420473,0.677953 -7.01457,11.1059 -19.115,20.7166 -37.4103,25.5981 -13.6736,3.64843 -29.276,6.57402 -44.6705,9.45946 -7.69253,1.44213 -15.3638,2.88071 -18.7323,3.55748 -20.1295,4.05237 -37.8567,4.14331 -39.0095,5.64095 0.147638,0.711024 0.261024,1.43504 0.340158,2.16969 2.08701,1.38662 25.2851,9.04135 53.9658,18.0638 101.356,31.8862 136.524,16.3878 241.827,6.90827z"/>
   </g>
  </g>
  <path class="fil2" d="M1024 -0.0011811c565.541,0 1024,458.461 1024,1024 0,565.541 -458.461,1024 -1024,1024 -565.541,0 -1024,-458.461 -1024,-1024 0,-565.541 458.461,-1024 1024,-1024z"/>
  <path class="fil3" d="M1043.8 685.706l414.003 0 0 0.0011811c0.767717,0.0011811 1.54252,0.0413386 2.32323,0.127559 11.5665,1.28386 19.9028,11.7012 18.6189,23.2666l-0.0366142 -0.00354331c-1.2815,11.5642 -2.35512,30.052 -3.65788,52.552 -6.46063,111.502 -18.1618,313.428 -96.9591,313.428l-254.58 0c-78.7961,0 -90.4985,-201.926 -96.9591,-313.428 -1.25787,-21.7169 -2.30079,-39.6957 -3.52441,-51.3189 -0.197244,-1.15512 -0.3,-2.34213 -0.3,-3.55276 0,-11.6374 9.43465,-21.0721 21.0721,-21.0721z"/>
  <path class="fil4" d="M978.106 1098.51c0.0874016,12.4536 7.8626,22.5142 17.4402,22.5142l502.652 0c9.57875,0 17.3528,-10.0606 17.4414,-22.5142l50.9174 -8.55827c9.63308,0 17.4437,-10.1764 17.4437,-22.728 0,-12.5516 -7.81064,-22.728 -17.4437,-22.728l-84.5032 14.2039c-8.07757,0 -14.8736,7.15749 -16.8567,16.8685l-436.65 0c-1.98307,-9.71103 -8.77796,-16.8685 -16.8567,-16.8685l-84.502 -14.2039c-9.63426,0 -17.4449,10.1764 -17.4449,22.728 0,12.5516 7.81064,22.728 17.4449,22.728l50.9185 8.55827z"/>
  <path class="fil4" d="M1222.47 1181.17c3.96142,1.04055 6.55276,2.53465 4.43032,-0.129921 -0.500788,-0.629528 -1.91103,-0.364961 -4.43032,0.129921z"/>
  <polygon class="fil5" points="558.88,1103.14 558.221,1102.58 558.877,1103.14 "/>
  <path class="fil6" d="M1050.32 1152.65c51.443,-4.63229 106.14,-9.55867 152.791,-14.9693 1.24961,-0.21378 2.53347,-0.324803 3.84449,-0.324803 26.1792,0 45.4902,2.93504 55.4611,15.4536 65.7284,82.5131 -259.253,130.475 -290.954,137.149 -58.9182,12.398 -54.2374,13.4551 -127.4,3.50551 -57.1205,-7.76812 -129.155,-20.4898 -166.694,-27.6201 -19.7764,-3.75355 -38.5583,-4.9193 -56.7378,-3.03544 -17.491,1.81299 -34.6536,6.49489 -51.8788,14.4626 -10.4563,5.80394 -73.3217,19.4575 -73.3217,7.86024l-4.8437 -145.002c51.3532,-12.085 71.269,-67.976 131.425,-96.0733 45.802,-13.8307 98.7213,-20.5122 121.389,-19.8414 25.0016,0.739371 50.1496,-3.89292 70.9075,-7.71733 21.626,-3.98386 39.2469,-7.2319 53.328,-4.03819 11.948,2.71181 21.4299,10.076 27.2941,19.7894 4.21063,6.97205 6.52678,15.2563 6.47126,23.8878 -0.0555119,8.46615 -2.36811,17.1626 -7.39253,25.1162 -7.01457,11.1059 -19.115,20.7166 -37.4103,25.5981 -13.6736,3.64843 -29.276,6.57402 -44.6705,9.45946 -7.69253,1.44213 -15.3638,2.88071 -18.7323,3.55748 -20.1295,4.05237 -37.8567,4.14331 -39.0095,5.64095 0.147638,0.711024 0.261024,1.43504 0.340158,2.16969 2.08701,1.38662 25.2851,9.04135 53.9658,18.0638 101.356,31.8862 136.524,16.3878 241.827,6.90827z"/>
  <path class="fil7" d="M1273.74 1185.98c-6.38504,20.4248 -37.8449,36.9969 -78.5871,50.2359 -11.9102,-16.6784 -14.4898,-32.0717 15.5457,-46.1965 23.7225,-11.1555 45.9709,-11.3091 63.0414,-4.03937z"/>
  <path class="fil8" d="M531.604 1100.86c0,-12.5516 -15.1347,-7.93111 -33.802,-7.93111 -18.6685,0 -33.8032,-4.62048 -33.8032,7.93111l0 251.673c0,12.5516 15.1347,9.41103 33.8032,9.41103 18.6673,0 33.802,3.14055 33.802,-9.41103l0 -251.673z"/>
  <path class="fil9" d="M1026.55 761.65c6.46063,111.502 18.163,313.428 96.9591,313.428l127.291 0 0 -389.372 -207.003 0c-11.6374,0 -21.0721,9.43465 -21.0721,21.0721 0,1.21063 0.102756,2.39764 0.3,3.55276 1.22362,11.6232 2.26654,29.602 3.52441,51.3189z"/>
  <path class="fil10" d="M1250.8 685.706l0 389.372 127.289 0c37.7055,0 60.0473,-46.2343 73.8036,-106.674 3.72166,-16.3524 6.81497,-33.7429 9.41339,-51.5386 6.61536,-45.2965 10.0287,-93.2174 12.4536,-133.308 0.46063,-7.60867 0.884646,-14.9351 1.28858,-21.9083 0.412205,-7.1256 0.801969,-13.8473 1.18228,-20.0752 0.820867,-13.4398 1.59921,-24.574 2.47559,-32.4768l0.0366142 0.00354331c1.28386,-11.5654 -7.05237,-21.9827 -18.6189,-23.2666 -0.780709,-0.0862205 -1.55551,-0.126378 -2.32323,-0.12874l-207 0z"/>
  <path class="fil4" d="M1472.04 741.524c-11.6374,0 -12.4984,10.1197 -12.4984,21.7571 0,11.6374 0.861024,20.3858 12.4984,20.3858 19.1953,0 -6.81969,-0.0484252 5.24528,-0.0968505 25.6441,-0.102756 59.517,-0.237402 59.6516,31.317 0.0956694,22.9169 -11.5819,47.0575 -28.8496,67.7233 -19.5815,23.4366 -41.0126,40.2473 -65.4497,47.2323 -11.1827,3.18189 -14.5406,14.7791 -11.3587,25.9606 3.18189,11.1827 6.93898,19.213 18.1217,16.0311 32.2772,-9.22678 66.1985,-32.5996 90.952,-62.2264 23.0918,-27.6366 38.7048,-61.2426 38.5618,-94.8863 -0.311811,-73.5355 -58.0678,-73.3052 -101.793,-73.1292 -8.56182,0.0330709 17.4886,-0.068504 -5.08111,-0.068504z"/>
  <path class="fil11" d="M902.403 1041.89c6.87875,22.037 -3.6437,45.0201 -34.4563,54.6367 -30.8114,9.61772 -40.18,-7.063 -47.0587,-29.1 -6.87756,-22.0358 -8.66103,-41.0835 22.1516,-50.7012 30.8126,-9.61654 52.4859,3.12756 59.3634,25.1646z"/>
 </g>
</svg>
